<svg xmlns="http://www.w3.org/2000/svg" viewBox="0 0 32 32" width="32" height="32" role="img" aria-label="proton-drive-linux-fs logo">
  <rect x="1" y="1" width="30" height="30" rx="8" fill="#6d4aff"/>
  <path d="M9 20.5c-2.5 0-4.5-2-4.5-4.5 0-2.3 1.7-4.1 3.9-4.4C9 9 11.2 7.3 13.8 7.3c3 0 5.5 2.2 5.9 5.1 2.1.3 3.8 2.1 3.8 4.3 0 2.4-2 4.4-4.4 4.4H9z"
        fill="none" stroke="#ffffff" stroke-width="1.6" stroke-linejoin="round" stroke-linecap="round"/>
  <circle cx="16" cy="19.5" r="2.6" fill="#ffffff"/>
  <rect x="14.9" y="19.2" width="2.2" height="2.6" rx="0.5" fill="#6d4aff"/>
  <path d="M15 18.6v-1a1 1 0 0 1 2 0v1" fill="none" stroke="#6d4aff" stroke-width="0.9" stroke-linecap="round"/>
</svg>
